<svg width="46" height="46" fill="#ffffff" viewBox="0 0 24 24" xmlns="http://www.w3.org/2000/svg">
  <path d="M7.125 12a3.375 3.375 0 1 0 0-6.75 3.375 3.375 0 0 0 0 6.75Z"></path>
  <path d="M10.969 13.875c-1.32-.67-2.777-.938-3.844-.938-2.09 0-6.375 1.282-6.375 3.844v1.969h7.031v-.753c0-.89.375-1.784 1.032-2.528.523-.595 1.256-1.146 2.156-1.594Z"></path>
  <path d="M15.938 13.5c-2.441 0-7.313 1.508-7.313 4.5v2.25H23.25V18c0-2.992-4.872-4.5-7.313-4.5Z"></path>
  <path d="M15.938 12a4.125 4.125 0 1 0 0-8.25 4.125 4.125 0 0 0 0 8.25Z"></path>
</svg>